<svg width="1024" height="872" xmlns="http://www.w3.org/2000/svg" p-id="1928" version="1.1" class="icon" t="1741611863360">

 <g>
  <title>Layer 1</title>
  <path stroke="null" id="svg_1" p-id="1929" d="m69.37772,814.93947l215.398,-37.56132l16.077,7.05881a458.547,390.25761 0 0 0 211.148,43.4882a460.8,392.17508 0 1 0 -460.8,-392.17508c0,68.19489 20.48,133.77528 58.828,191.8611l9.933,15.12019l-50.585,172.20809l0.001,0zm10.29,42.70351a51.2,43.57501 0 0 1 -59.903,-53.29172l45.568,-155.38916a509.696,433.78921 0 0 1 -65.332,-213.21201c0,-240.66511 229.223,-435.75009 512,-435.75009s512,195.08497 512,435.75009s-229.223,435.75009 -512,435.75009c-84.583,0 -164.352,-17.43 -234.65,-48.36826l-197.632,34.46851l-0.051,0.04255z" fill="gray"/>
 </g>
</svg>